<svg width="345" height="345" viewBox="0 0 345 345" fill="none" xmlns="http://www.w3.org/2000/svg">
  <g class="vinyl">
    <path
      d="M345 172.5C345 267.769 267.769 345 172.5 345C77.2309 345 0 267.769 0 172.5C0 77.2309 77.2309 0 172.5 0C267.769 0 345 77.2309 345 172.5ZM146.894 172.5C146.894 186.642 158.358 198.106 172.5 198.106C186.642 198.106 198.106 186.642 198.106 172.5C198.106 158.358 186.642 146.894 172.5 146.894C158.358 146.894 146.894 158.358 146.894 172.5Z"
      fill="#E3E3E3" />
    <path
      d="M233.401 81.067C234.72 79.0869 234.188 76.4049 232.16 75.1616C218.627 66.8676 203.5 61.4778 187.739 59.355C170.554 57.0403 153.067 58.6709 136.605 64.1229C120.144 69.5749 105.141 78.705 92.7348 90.8205C80.3286 102.936 70.8452 117.718 65.0044 134.046C59.1636 150.373 57.1189 167.817 59.0254 185.052C60.932 202.288 66.7396 218.862 76.0077 233.519C85.2757 248.175 97.7606 260.527 112.515 269.638C126.046 277.994 141.16 283.422 156.882 285.593C159.239 285.919 161.351 284.183 161.588 281.815V281.815C161.824 279.448 160.095 277.346 157.739 277.014C143.319 274.977 129.459 269.975 117.042 262.307C103.401 253.884 91.8584 242.464 83.2898 228.914C74.7211 215.364 69.3518 200.04 67.5891 184.105C65.8265 168.17 67.7169 152.043 73.1169 136.948C78.5169 121.853 87.2845 108.186 98.7545 96.9847C110.224 85.7835 124.095 77.3424 139.314 72.3018C154.533 67.2613 170.701 65.7538 186.589 67.8938C201.053 69.8419 214.94 74.766 227.38 82.3381C229.412 83.5751 232.082 83.0472 233.401 81.067V81.067Z"
      fill="#D3D3D3" />
    <path
      d="M36.0399 136.349C33.9939 135.807 31.8905 137.025 31.4027 139.085C24.5548 167.999 26.7497 198.355 37.7416 226.027C49.2056 254.889 69.6328 279.307 96.0161 295.688C122.399 312.068 153.345 319.546 184.297 317.019C215.248 314.493 244.572 302.096 267.949 281.653C291.327 261.211 307.523 233.803 314.155 203.465C320.787 173.126 317.503 141.46 304.787 113.128C292.072 84.7958 270.596 61.2945 243.521 46.0839C217.561 31.4997 187.77 25.2762 158.2 28.2069C156.094 28.4156 154.606 30.3377 154.87 32.4377V32.4377C155.134 34.5378 157.051 36.0202 159.158 35.8146C187.098 33.087 215.238 38.9864 239.767 52.7665C265.41 67.173 285.751 89.4319 297.794 116.266C309.838 143.101 312.948 173.093 306.667 201.828C300.386 230.563 285.045 256.522 262.904 275.883C240.762 295.245 212.989 306.987 183.673 309.38C154.357 311.773 125.048 304.691 100.059 289.176C75.0705 273.661 55.7231 250.534 44.8651 223.198C34.4793 197.051 32.3855 168.375 38.8148 141.049C39.2996 138.988 38.086 136.891 36.0399 136.349V136.349Z"
      fill="#D3D3D3" />
    <path
      d="M205.194 228.325C206.267 230.195 208.66 230.851 210.467 229.673C217.835 224.869 224.223 218.688 229.274 211.458C235.072 203.159 238.966 193.683 240.677 183.705C242.389 173.727 241.875 163.495 239.174 153.738C236.473 143.982 231.65 134.942 225.051 127.266C218.451 119.589 210.238 113.464 200.997 109.33C191.757 105.195 181.717 103.152 171.596 103.346C161.474 103.541 151.52 105.968 142.446 110.455C134.539 114.364 127.47 119.752 121.615 126.316C120.179 127.925 120.468 130.39 122.156 131.732V131.732C123.844 133.074 126.291 132.784 127.738 131.185C132.87 125.516 139.031 120.855 145.907 117.455C153.951 113.478 162.774 111.326 171.746 111.154C180.718 110.982 189.617 112.793 197.808 116.458C205.999 120.123 213.279 125.552 219.129 132.357C224.978 139.161 229.253 147.174 231.648 155.822C234.042 164.47 234.497 173.54 232.98 182.385C231.464 191.229 228.012 199.629 222.873 206.986C218.48 213.273 212.947 218.665 206.572 222.888C204.774 224.079 204.12 226.455 205.194 228.325V228.325Z"
      fill="#D3D3D3" />
  </g>
</svg>
