<svg width="357" height="357" viewBox="0 0 357 357" fill="none" xmlns="http://www.w3.org/2000/svg">
<path d="M351 178.5C351 273.769 273.769 351 178.5 351C83.2309 351 6 273.769 6 178.5C6 83.2309 83.2309 6 178.5 6C273.769 6 351 83.2309 351 178.5ZM150.9 178.5C150.9 193.743 163.257 206.1 178.5 206.1C193.743 206.1 206.1 193.743 206.1 178.5C206.1 163.257 193.743 150.9 178.5 150.9C163.257 150.9 150.9 163.257 150.9 178.5Z" fill="#A6AAD2"/>
<path d="M42.0399 142.349C39.9939 141.807 37.8905 143.025 37.4027 145.085C30.5548 173.999 32.7497 204.355 43.7416 232.027C55.2056 260.889 75.6328 285.307 102.016 301.688C128.399 318.068 159.345 325.546 190.297 323.019C221.248 320.493 250.572 308.096 273.949 287.653C297.327 267.211 313.523 239.803 320.155 209.465C326.787 179.126 323.503 147.46 310.787 119.128C298.072 90.7958 276.596 67.2945 249.521 52.0839C223.561 37.4997 193.77 31.2762 164.2 34.2069C162.094 34.4156 160.606 36.3377 160.87 38.4377V38.4377C161.134 40.5378 163.051 42.0202 165.158 41.8146C193.098 39.087 221.238 44.9864 245.767 58.7665C271.41 73.173 291.751 95.4319 303.794 122.266C315.838 149.101 318.948 179.093 312.667 207.828C306.386 236.563 291.045 262.522 268.904 281.883C246.762 301.245 218.989 312.987 189.673 315.38C160.357 317.773 131.048 310.691 106.059 295.176C81.0705 279.661 61.7231 256.534 50.8651 229.198C40.4793 203.051 38.3855 174.375 44.8148 147.049C45.2996 144.988 44.086 142.891 42.0399 142.349V142.349Z" fill="white" fill-opacity="0.15"/>
<path d="M239.401 87.067C240.72 85.0869 240.188 82.4049 238.16 81.1616C224.627 72.8676 209.5 67.4778 193.739 65.355C176.554 63.0403 159.067 64.6709 142.605 70.1229C126.144 75.5749 111.141 84.705 98.7347 96.8205C86.3285 108.936 76.8451 123.718 71.0043 140.046C65.1636 156.373 63.1188 173.817 65.0254 191.052C66.9319 208.288 72.7396 224.862 82.0076 239.519C91.2757 254.175 103.761 266.527 118.515 275.638C132.046 283.994 147.16 289.422 162.882 291.593C165.239 291.919 167.351 290.183 167.588 287.815V287.815C167.824 285.448 166.095 283.346 163.739 283.014C149.318 280.977 135.459 275.975 123.042 268.307C109.401 259.884 97.8583 248.464 89.2897 234.914C80.7211 221.364 75.3517 206.04 73.589 190.105C71.8264 174.17 73.7168 158.043 79.1168 142.948C84.5168 127.853 93.2845 114.186 104.754 102.985C116.224 91.7835 130.095 83.3424 145.314 78.3018C160.533 73.2613 176.7 71.7538 192.589 73.8938C207.053 75.8419 220.94 80.766 233.38 88.3381C235.412 89.5751 238.082 89.0472 239.401 87.067V87.067Z" fill="white" fill-opacity="0.15"/>
<path d="M211.194 234.325C212.267 236.195 214.66 236.851 216.467 235.673C223.835 230.869 230.223 224.688 235.275 217.458C241.072 209.159 244.966 199.683 246.677 189.705C248.389 179.727 247.875 169.495 245.174 159.738C242.473 149.982 237.65 140.942 231.051 133.266C224.451 125.589 216.238 119.464 206.997 115.33C197.757 111.195 187.717 109.152 177.596 109.346C167.474 109.541 157.52 111.968 148.446 116.455C140.539 120.364 133.47 125.752 127.615 132.316C126.179 133.925 126.468 136.39 128.156 137.732V137.732C129.844 139.074 132.291 138.784 133.738 137.185C138.87 131.516 145.031 126.855 151.907 123.455C159.951 119.478 168.774 117.326 177.746 117.154C186.718 116.982 195.617 118.793 203.808 122.458C211.999 126.123 219.279 131.552 225.129 138.357C230.979 145.161 235.253 153.174 237.648 161.822C240.042 170.47 240.497 179.54 238.98 188.385C237.464 197.229 234.012 205.629 228.873 212.986C224.48 219.273 218.947 224.665 212.572 228.888C210.774 230.079 210.12 232.455 211.194 234.325V234.325Z" fill="white" fill-opacity="0.15"/>
<circle cx="178.5" cy="178.5" r="173.5" stroke="#878ABF" stroke-width="10"/>
</svg>
